<?xml version="1.0" ?><svg viewBox="0 0 32 32" xmlns="http://www.w3.org/2000/svg"><title/><g data-name="Layer 44" id="Layer_44"><path d="M26.56,15a.5.5,0,0,0-.5.5v8.75a1.85,1.85,0,0,1-1.85,1.85H7.73a1.85,1.85,0,0,1-1.85-1.85V7.76A1.85,1.85,0,0,1,7.73,5.91H24.21a.5.5,0,0,0,0-1H7.73A2.86,2.86,0,0,0,4.88,7.76V24.24a2.86,2.86,0,0,0,2.85,2.85H24.21a2.86,2.86,0,0,0,2.85-2.85V15.49A.5.5,0,0,0,26.56,15Z"/><path d="M27.63,5.29a.5.5,0,0,0-.5.5v5.59a1.07,1.07,0,0,1-1.15,1H12.78l4.35-3.88a.5.5,0,0,0-.67-.75l-5.33,4.75h0A.5.5,0,0,0,11,13a.5.5,0,0,0,.13.2L16.46,18a.5.5,0,0,0,.67-.75l-4.35-3.88H26a2.07,2.07,0,0,0,2.15-2V5.79A.5.5,0,0,0,27.63,5.29Z"/></g></svg>